<svg xmlns="http://www.w3.org/2000/svg" viewBox="0 0 64 64">
  <defs>
    <linearGradient id="bg" x1="0" y1="0" x2="1" y2="1">
      <stop offset="0%" stop-color="#2563eb" />
      <stop offset="100%" stop-color="#0ea5e9" />
    </linearGradient>
  </defs>
  <rect x="4" y="4" width="56" height="56" rx="14" fill="url(#bg)"/>
  <path d="M32 16c1.7 0 3 1.3 3 3v10h10c1.7 0 3 1.3 3 3s-1.3 3-3 3H35v10c0 1.7-1.3 3-3 3s-3-1.3-3-3V35H19c-1.7 0-3-1.3-3-3s1.3-3 3-3h10V19c0-1.7 1.3-3 3-3z" fill="#ffffff"/>
</svg>
